# xmcd
#
# Track frame offsets: 
#        150
#        17121
#        33631
#        49821
#        65089
#        83503
#        97502
#        124067
#        137803
#        164695
#        178711
#        200058
#        222215
#        231710
#        243869
#
# Disc length: 3470 seconds
#
# Revision: 0
# Processed by: cddbd v1.5.2PL0 Copyright (c) Steve Scherf et al.
# Submitted via: ExactAudioCopy v1.0b1
#
DISCID=d70d8c0f
DTITLE=Jimmy Adler - Midnight Rooster
DYEAR=2011
DGENRE=Blues
TTITLE0=Wild Imagination
TTITLE1=Sugar Cookie
TTITLE2=Down Home Honey
TTITLE3=St. Charles Line
TTITLE4=Let's Cut Loose
TTITLE5=Basement Boogie
TTITLE6=Scratchin' At My Screen Door
TTITLE7=Swing It
TTITLE8=idnight Rooster
TTITLE9=Horseshoe Curve
TTITLE10=Jersey Joe
TTITLE11=Lion's Mouth
TTITLE12=All About It
TTITLE13=Hair of the Dog
TTITLE14=Headhunters
EXTD=
EXTT0=
EXTT1=
EXTT2=
EXTT3=
EXTT4=
EXTT5=
EXTT6=
EXTT7=
EXTT8=
EXTT9=
EXTT10=
EXTT11=
EXTT12=
EXTT13=
EXTT14=
PLAYORDER=
